<svg width="648" height="114" viewBox="0 0 648 114" fill="none" xmlns="http://www.w3.org/2000/svg">
<g clip-path="url(#clip0_182:165)">
<path d="M0.0490417 113.667V59.4258H3.9029C6.74436 71.0829 14.1698 78.9452 23.9098 83.3309C25.4152 84.0126 26.2846 83.2021 27.1615 81.816L35.8026 113.667H0.0490417Z" fill="white" stroke="white" stroke-width="0.25" stroke-miterlimit="10"/>
<path d="M76.0196 113.667L64.2322 76.3093C72.4066 56.0248 66.893 36.6985 60.6192 23.2878C56.9724 19.3756 53.604 17.1487 50.9206 19.0764C47.8458 11.9867 43.3559 5.98389 35.8025 2.4466L38.9413 0.0492706H112.955V113.667H76.0196Z" fill="white" stroke="white" stroke-width="0.25" stroke-miterlimit="10"/>
<path d="M50.9204 19.0916C39.6298 25.7003 33.7888 30.4533 24.9107 32.6726C27.2177 35.6494 30.9549 38.0657 33.9958 37.2704C37.876 36.1342 40.5369 26.9387 50.9204 19.0916Z" fill="white" stroke="white" stroke-width="0.25" stroke-miterlimit="10"/>
<path d="M38.9416 0.0496616L35.8028 2.44699L10.9861 8.56718L6.82366 12.5892L10.606 26.5604H13.0786L24.9112 32.673C21.7536 41.005 26.7553 54.6656 33.9963 61.5735C29.4161 59.4602 15.555 58.3809 3.8881 59.4262H0.0493011V0.0496616H38.9416Z" fill="white" stroke="white" stroke-width="0.25" stroke-miterlimit="10"/>
<path d="M33.996 37.2703C36.8563 56.0096 49.4566 67.7311 55.482 72.113C45.5952 61.2057 37.9138 42.455 37.9138 33.6535L33.996 37.2703Z" fill="white" stroke="white" stroke-width="0.25" stroke-miterlimit="10"/>
<path d="M13.0783 26.5524L27.1501 20.6216L16.3676 28.2567L13.0783 26.5524Z" fill="white" stroke="white" stroke-width="0.25" stroke-miterlimit="10"/>
<path d="M35.8025 2.44658C34.982 7.07081 29.2841 16.4821 27.1464 20.6254C37.131 17.5085 45.6253 15.5353 46.9651 21.4586L50.9168 19.0915C47.5485 8.60086 41.9935 4.56744 35.8025 2.44658Z" fill="white" stroke="white" stroke-width="0.25" stroke-miterlimit="10"/>
<path d="M33.9958 61.5731C28.6704 64.1295 35.7872 70.9503 37.9136 63.4894L33.9958 61.5731Z" fill="white" stroke="white" stroke-width="0.25" stroke-miterlimit="10"/>
<path d="M46.6752 66.8752C41.3536 69.4316 48.4667 76.2524 50.5968 68.7916L46.6752 66.8752Z" fill="white"/>
<path d="M46.6752 66.8752C41.3536 69.4316 48.4667 76.2524 50.5968 68.7916" stroke="white" stroke-width="0.25" stroke-miterlimit="10"/>
<path d="M76.0197 113.667C65.9974 97.7603 51.2067 88.6444 32.0579 79.7708C47.2588 82.3083 59.6671 81.6228 64.2323 76.3093L76.0197 113.667Z" fill="white" stroke="white" stroke-width="0.25" stroke-miterlimit="10"/>
<path d="M53.3066 69.5264C38.4708 64.531 29.5023 60.1719 30.0668 56.858C35.968 60.1681 42.2719 64.175 44.7446 61.5732L53.3066 69.5264Z" fill="white" stroke="white" stroke-width="0.25" stroke-miterlimit="10"/>
</g>
<path d="M147.88 67L148.312 58.252L147.88 42.16H161.38L160.984 46.012H152.884L152.668 52.384H159.868L159.472 56.2H152.524L152.488 57.64L152.74 63.184H161.452L161.056 67H147.88ZM163.799 64.588C163.799 63.82 164.075 63.148 164.627 62.572C165.203 61.972 165.887 61.672 166.679 61.672C168.239 61.672 169.019 62.464 169.019 64.048C169.019 64.96 168.731 65.716 168.155 66.316C167.603 66.916 166.943 67.216 166.175 67.216C165.431 67.216 164.843 66.976 164.411 66.496C164.003 65.992 163.799 65.356 163.799 64.588ZM173.054 67.36C172.07 67.36 171.086 67.252 170.102 67.036L171.254 62.716C172.046 62.98 172.814 63.112 173.558 63.112C175.022 63.112 175.754 61.9 175.754 59.476L175.25 42.88L180.362 41.98L179.858 58.216C179.858 60.832 179.222 63.016 177.95 64.768C176.678 66.496 175.046 67.36 173.054 67.36ZM196.34 41.98L195.944 53.716L205.124 42.052L208.796 44.5L200.516 54.112L209.3 64.516L204.692 67.396L195.908 54.976L195.836 57.64L196.268 67H191.228L191.66 58.252L191.228 42.88L196.34 41.98ZM221.688 57.892C221.688 56.236 221.544 55.132 221.256 54.58C220.968 54.028 220.296 53.752 219.24 53.752C218.184 53.752 216.984 54.172 215.64 55.012V57.64L216.036 66.1L211.212 67L211.644 58.252C211.548 55.036 211.284 52.156 210.852 49.612L215.208 48.676C215.376 50.068 215.496 51.424 215.568 52.744C215.928 52.264 216.336 51.796 216.792 51.34C217.248 50.86 217.968 50.332 218.952 49.756C219.936 49.156 220.968 48.856 222.048 48.856C223.152 48.856 224.076 49.288 224.82 50.152C225.564 50.992 225.936 52.144 225.936 53.608L225.72 57.64L226.116 66.28L221.256 67.18L221.688 57.892ZM229.012 59.476C229.012 56.404 229.84 53.8 231.496 51.664C233.152 49.528 235.084 48.46 237.292 48.46C239.524 48.46 241.252 49.18 242.476 50.62C243.724 52.06 244.348 53.968 244.348 56.344C244.348 59.512 243.544 62.152 241.936 64.264C240.352 66.352 238.348 67.396 235.924 67.396C233.932 67.396 232.276 66.652 230.956 65.164C229.66 63.652 229.012 61.756 229.012 59.476ZM240.316 58.216C240.316 54.736 239.128 52.996 236.752 52.996C234.28 52.996 233.044 54.628 233.044 57.892C233.044 59.596 233.392 60.928 234.088 61.888C234.784 62.848 235.696 63.328 236.824 63.328C237.976 63.328 238.84 62.896 239.416 62.032C240.016 61.144 240.316 59.872 240.316 58.216ZM263.515 62.5H263.983L265.135 57.568L267.007 48.676L271.399 49.216L268.771 58.144L266.575 66.568L260.671 67.108L258.691 58.36L258.511 57.784L256.099 66.568L250.375 67.108L248.287 58.36L245.803 49.612L250.519 48.712L251.995 56.632L253.291 62.5H253.759L256.855 52.24L256.099 49.612L260.743 48.712L262.255 56.632L263.515 62.5ZM278.723 39.136L278.255 57.64L278.651 66.1L273.791 67L274.223 58.252L273.791 40.036L278.723 39.136ZM289.377 63.328C290.073 63.328 290.805 63.148 291.573 62.788C292.341 62.428 292.941 62.068 293.373 61.708L294.021 61.168L295.677 63.184C295.437 63.592 295.065 64.06 294.561 64.588C294.057 65.116 293.541 65.572 293.013 65.956C292.509 66.316 291.825 66.652 290.961 66.964C290.121 67.252 289.245 67.396 288.333 67.396C286.389 67.396 284.805 66.664 283.581 65.2C282.357 63.712 281.745 61.804 281.745 59.476C281.745 56.548 282.597 53.98 284.301 51.772C286.005 49.564 287.997 48.46 290.277 48.46C292.029 48.46 293.385 48.952 294.345 49.936C295.329 50.92 295.821 52.3 295.821 54.076C295.821 55.132 295.641 56.332 295.281 57.676L294.561 58.432L285.561 59.26C285.969 61.972 287.241 63.328 289.377 63.328ZM289.377 52.168C288.321 52.168 287.433 52.6 286.713 53.464C285.993 54.304 285.573 55.384 285.453 56.704L291.573 55.948C291.645 55.396 291.681 54.94 291.681 54.58C291.681 52.972 290.913 52.168 289.377 52.168ZM297.703 70.564C297.703 68.452 299.671 66.796 303.607 65.596C302.671 65.116 302.203 64.492 302.203 63.724C302.203 63.412 302.323 63.1 302.563 62.788C302.803 62.476 303.151 62.152 303.607 61.816V61.528C301.879 61.528 300.499 61.048 299.467 60.088C298.459 59.128 297.955 57.844 297.955 56.236C297.955 54.148 298.807 52.336 300.511 50.8C302.215 49.24 304.231 48.46 306.559 48.46C307.159 48.46 308.035 48.58 309.187 48.82C310.339 49.06 311.467 49.18 312.571 49.18H315.343L314.983 52.312L312.283 51.988C312.523 52.684 312.643 53.476 312.643 54.364C312.643 55.252 312.427 56.14 311.995 57.028C311.587 57.892 311.083 58.588 310.483 59.116C309.907 59.644 309.319 60.112 308.719 60.52C308.143 60.904 307.639 61.252 307.207 61.564C306.799 61.852 306.595 62.116 306.595 62.356C306.595 62.812 307.075 63.208 308.035 63.544C310.579 64.576 312.295 65.452 313.183 66.172C314.095 66.892 314.551 67.78 314.551 68.836C314.551 70.612 313.651 72.064 311.851 73.192C310.075 74.344 307.951 74.92 305.479 74.92C303.007 74.92 301.087 74.524 299.719 73.732C298.375 72.94 297.703 71.884 297.703 70.564ZM308.575 55.444C308.575 54.268 308.311 53.404 307.783 52.852C307.255 52.3 306.427 52.024 305.299 52.024C303.115 52.024 302.023 53.104 302.023 55.264C302.023 57.4 303.187 58.468 305.515 58.468C307.555 58.468 308.575 57.46 308.575 55.444ZM309.871 69.376C309.871 68.944 309.643 68.536 309.187 68.152C308.731 67.792 307.915 67.36 306.739 66.856C304.987 67.336 303.775 67.78 303.103 68.188C302.455 68.596 302.131 69.1 302.131 69.7C302.131 70.3 302.455 70.78 303.103 71.14C303.775 71.524 304.699 71.716 305.875 71.716C307.051 71.716 308.011 71.5 308.755 71.068C309.499 70.636 309.871 70.072 309.871 69.376ZM323.724 63.328C324.42 63.328 325.152 63.148 325.92 62.788C326.688 62.428 327.288 62.068 327.72 61.708L328.368 61.168L330.024 63.184C329.784 63.592 329.412 64.06 328.908 64.588C328.404 65.116 327.888 65.572 327.36 65.956C326.856 66.316 326.172 66.652 325.308 66.964C324.468 67.252 323.592 67.396 322.68 67.396C320.736 67.396 319.152 66.664 317.928 65.2C316.704 63.712 316.092 61.804 316.092 59.476C316.092 56.548 316.944 53.98 318.648 51.772C320.352 49.564 322.344 48.46 324.624 48.46C326.376 48.46 327.732 48.952 328.692 49.936C329.676 50.92 330.168 52.3 330.168 54.076C330.168 55.132 329.988 56.332 329.628 57.676L328.908 58.432L319.908 59.26C320.316 61.972 321.588 63.328 323.724 63.328ZM323.724 52.168C322.668 52.168 321.78 52.6 321.06 53.464C320.34 54.304 319.92 55.384 319.8 56.704L325.92 55.948C325.992 55.396 326.028 54.94 326.028 54.58C326.028 52.972 325.26 52.168 323.724 52.168ZM347.469 42.16C349.773 42.16 351.597 42.688 352.941 43.744C354.285 44.776 354.957 46.168 354.957 47.92C354.957 50.728 353.805 52.684 351.501 53.788C354.621 54.868 356.181 56.86 356.181 59.764C356.181 61.948 355.245 63.772 353.373 65.236C351.501 66.676 349.149 67.396 346.317 67.396C344.829 67.396 342.609 67.264 339.657 67L340.089 58.252L339.657 42.16H347.469ZM347.001 56.308H344.085L344.049 57.64L344.301 63.508C345.693 63.628 346.761 63.688 347.505 63.688C348.777 63.688 349.761 63.376 350.457 62.752C351.177 62.104 351.537 61.168 351.537 59.944C351.537 58.72 351.177 57.808 350.457 57.208C349.737 56.608 348.585 56.308 347.001 56.308ZM346.173 45.796H344.409L344.193 52.816H346.533C347.757 52.816 348.693 52.492 349.341 51.844C349.989 51.172 350.313 50.224 350.313 49C350.313 46.864 348.933 45.796 346.173 45.796ZM363.348 67C361.932 67 360.768 66.556 359.856 65.668C358.968 64.756 358.524 63.544 358.524 62.032C358.524 60.496 359.22 59.176 360.612 58.072C362.004 56.944 363.696 56.38 365.688 56.38H368.136V55.768C368.136 54.592 367.896 53.788 367.416 53.356C366.936 52.924 366.036 52.708 364.716 52.708C364.164 52.708 363.504 52.828 362.736 53.068C361.992 53.284 361.152 53.632 360.216 54.112L359.172 51.268C360.204 50.548 361.452 49.9 362.916 49.324C364.404 48.748 365.628 48.46 366.588 48.46C370.356 48.46 372.24 50.284 372.24 53.932V60.988C372.24 62.332 372.66 63.832 373.5 65.488L369.684 67.108C369.084 65.956 368.64 64.924 368.352 64.012C367.032 66.004 365.364 67 363.348 67ZM364.86 63.328C365.82 63.328 366.912 62.836 368.136 61.852V59.44C366.864 59.152 365.832 59.008 365.04 59.008C363.528 59.008 362.772 59.68 362.772 61.024C362.772 61.72 362.964 62.284 363.348 62.716C363.732 63.124 364.236 63.328 364.86 63.328ZM382.059 63.652C383.307 63.652 383.931 63.1 383.931 61.996C383.931 61.612 383.655 61.252 383.103 60.916C382.575 60.58 381.915 60.244 381.123 59.908C380.355 59.572 379.575 59.2 378.783 58.792C378.015 58.36 377.355 57.772 376.803 57.028C376.275 56.284 376.011 55.432 376.011 54.472C376.011 52.864 376.719 51.46 378.135 50.26C379.551 49.06 381.183 48.46 383.031 48.46C383.895 48.46 384.735 48.568 385.551 48.784C386.391 48.976 387.195 49.288 387.963 49.72L385.551 54.112C385.383 53.968 385.167 53.788 384.903 53.572C384.639 53.356 384.135 53.08 383.391 52.744C382.671 52.384 382.023 52.204 381.447 52.204C380.895 52.204 380.463 52.336 380.151 52.6C379.863 52.84 379.719 53.188 379.719 53.644C379.719 54.076 380.127 54.52 380.943 54.976C381.783 55.408 382.695 55.816 383.679 56.2C384.663 56.56 385.563 57.172 386.379 58.036C387.219 58.876 387.639 59.884 387.639 61.06C387.639 62.74 386.943 64.216 385.551 65.488C384.183 66.76 382.599 67.396 380.799 67.396C379.647 67.396 378.567 67.144 377.559 66.64C376.575 66.136 375.867 65.632 375.435 65.128L374.787 64.372L377.631 61.06C377.775 61.252 377.979 61.492 378.243 61.78C378.507 62.068 379.023 62.452 379.791 62.932C380.583 63.412 381.339 63.652 382.059 63.652ZM397.271 63.328C397.967 63.328 398.699 63.148 399.467 62.788C400.235 62.428 400.835 62.068 401.267 61.708L401.915 61.168L403.571 63.184C403.331 63.592 402.959 64.06 402.455 64.588C401.951 65.116 401.435 65.572 400.907 65.956C400.403 66.316 399.719 66.652 398.855 66.964C398.015 67.252 397.139 67.396 396.227 67.396C394.283 67.396 392.699 66.664 391.475 65.2C390.251 63.712 389.639 61.804 389.639 59.476C389.639 56.548 390.491 53.98 392.195 51.772C393.899 49.564 395.891 48.46 398.171 48.46C399.923 48.46 401.279 48.952 402.239 49.936C403.223 50.92 403.715 52.3 403.715 54.076C403.715 55.132 403.535 56.332 403.175 57.676L402.455 58.432L393.455 59.26C393.863 61.972 395.135 63.328 397.271 63.328ZM397.271 52.168C396.215 52.168 395.327 52.6 394.607 53.464C393.887 54.304 393.467 55.384 393.347 56.704L399.467 55.948C399.539 55.396 399.575 54.94 399.575 54.58C399.575 52.972 398.807 52.168 397.271 52.168ZM427.748 67.18L425.984 60.16H417.38L415.472 67L410.864 66.64L414.032 57.892L418.856 42.412L425.3 41.944L429.944 57.352L432.932 66.388L427.748 67.18ZM422.06 46.624H421.592L418.496 56.344H424.904L422.06 46.624ZM435.149 49.612L439.505 48.676C439.721 50.524 439.865 52.276 439.937 53.932C442.121 50.548 444.173 48.856 446.093 48.856L445.697 54.472C444.305 54.472 443.201 54.604 442.385 54.868C441.593 55.108 440.777 55.6 439.937 56.344V57.64L440.333 66.1L435.509 67L435.941 58.252C435.845 55.036 435.581 52.156 435.149 49.612ZM449.781 49.576V45.652L454.641 44.716L454.173 49.576H458.529L458.133 52.528H454.029L453.849 60.052C453.849 61.18 453.957 61.936 454.173 62.32C454.389 62.68 454.785 62.86 455.361 62.86C455.937 62.86 456.705 62.728 457.665 62.464L457.881 65.02C456.297 66.34 454.905 67 453.705 67C452.505 67 451.521 66.568 450.753 65.704C449.985 64.816 449.601 63.664 449.601 62.248L449.817 58.216L449.781 52.528H447.297L447.693 49.576H449.781ZM465.998 48.676L465.566 57.64L465.962 66.1L461.138 67L461.57 58.252L461.174 49.576L465.998 48.676ZM460.922 43.42C460.922 42.604 461.234 41.884 461.858 41.26C462.482 40.612 463.202 40.288 464.018 40.288C464.834 40.288 465.458 40.516 465.89 40.972C466.322 41.404 466.538 42.064 466.538 42.952C466.538 43.84 466.226 44.608 465.602 45.256C465.002 45.88 464.294 46.192 463.478 46.192C462.686 46.192 462.062 45.928 461.606 45.4C461.15 44.872 460.922 44.212 460.922 43.42ZM476.155 53.14C475.099 53.14 474.283 53.524 473.707 54.292C473.131 55.036 472.843 56.188 472.843 57.748C472.843 59.308 473.131 60.568 473.707 61.528C474.307 62.464 475.171 62.932 476.299 62.932C476.875 62.932 477.439 62.752 477.991 62.392C478.543 62.032 478.963 61.672 479.251 61.312L479.647 60.736L481.447 62.608C481.375 62.728 481.279 62.896 481.159 63.112C481.063 63.328 480.799 63.712 480.367 64.264C479.959 64.816 479.515 65.308 479.035 65.74C478.579 66.148 477.979 66.532 477.235 66.892C476.491 67.228 475.711 67.396 474.895 67.396C473.095 67.396 471.631 66.664 470.503 65.2C469.375 63.736 468.811 61.828 468.811 59.476C468.811 56.548 469.663 53.98 471.367 51.772C473.071 49.564 475.063 48.46 477.343 48.46C478.039 48.46 478.735 48.568 479.431 48.784C480.127 48.976 480.835 49.288 481.555 49.72L479.035 54.148C478.171 53.476 477.211 53.14 476.155 53.14ZM488.747 39.136L488.279 57.64L488.675 66.1L483.815 67L484.247 58.252L483.815 40.036L488.747 39.136ZM499.4 63.328C500.096 63.328 500.828 63.148 501.596 62.788C502.364 62.428 502.964 62.068 503.396 61.708L504.044 61.168L505.7 63.184C505.46 63.592 505.088 64.06 504.584 64.588C504.08 65.116 503.564 65.572 503.036 65.956C502.532 66.316 501.848 66.652 500.984 66.964C500.144 67.252 499.268 67.396 498.356 67.396C496.412 67.396 494.828 66.664 493.604 65.2C492.38 63.712 491.768 61.804 491.768 59.476C491.768 56.548 492.62 53.98 494.324 51.772C496.028 49.564 498.02 48.46 500.3 48.46C502.052 48.46 503.408 48.952 504.368 49.936C505.352 50.92 505.844 52.3 505.844 54.076C505.844 55.132 505.664 56.332 505.304 57.676L504.584 58.432L495.584 59.26C495.992 61.972 497.264 63.328 499.4 63.328ZM499.4 52.168C498.344 52.168 497.456 52.6 496.736 53.464C496.016 54.304 495.596 55.384 495.476 56.704L501.596 55.948C501.668 55.396 501.704 54.94 501.704 54.58C501.704 52.972 500.936 52.168 499.4 52.168ZM522.713 67.396C521.009 67.396 518.549 67.264 515.333 67L515.765 58.252L515.333 42.16H524.945C528.185 42.16 530.717 43.132 532.541 45.076C534.365 47.02 535.277 49.72 535.277 53.176C535.277 57.544 534.149 61.012 531.893 63.58C529.637 66.124 526.577 67.396 522.713 67.396ZM523.649 46.048C522.065 46.048 520.949 46.06 520.301 46.084L519.941 57.64L520.193 63.472C522.209 63.616 523.565 63.688 524.261 63.688C526.157 63.688 527.645 62.92 528.725 61.384C529.829 59.848 530.381 57.616 530.381 54.688C530.381 51.76 529.841 49.588 528.761 48.172C527.705 46.756 526.001 46.048 523.649 46.048ZM542.047 67C540.631 67 539.467 66.556 538.555 65.668C537.667 64.756 537.223 63.544 537.223 62.032C537.223 60.496 537.919 59.176 539.311 58.072C540.703 56.944 542.395 56.38 544.387 56.38H546.835V55.768C546.835 54.592 546.595 53.788 546.115 53.356C545.635 52.924 544.735 52.708 543.415 52.708C542.863 52.708 542.203 52.828 541.435 53.068C540.691 53.284 539.851 53.632 538.915 54.112L537.871 51.268C538.903 50.548 540.151 49.9 541.615 49.324C543.103 48.748 544.327 48.46 545.287 48.46C549.055 48.46 550.939 50.284 550.939 53.932V60.988C550.939 62.332 551.359 63.832 552.199 65.488L548.383 67.108C547.783 65.956 547.339 64.924 547.051 64.012C545.731 66.004 544.063 67 542.047 67ZM543.559 63.328C544.519 63.328 545.611 62.836 546.835 61.852V59.44C545.563 59.152 544.531 59.008 543.739 59.008C542.227 59.008 541.471 59.68 541.471 61.024C541.471 61.72 541.663 62.284 542.047 62.716C542.431 63.124 542.935 63.328 543.559 63.328ZM556.726 49.576V45.652L561.586 44.716L561.118 49.576H565.474L565.078 52.528H560.974L560.794 60.052C560.794 61.18 560.902 61.936 561.118 62.32C561.334 62.68 561.73 62.86 562.306 62.86C562.882 62.86 563.65 62.728 564.61 62.464L564.826 65.02C563.242 66.34 561.85 67 560.65 67C559.45 67 558.466 66.568 557.698 65.704C556.93 64.816 556.546 63.664 556.546 62.248L556.762 58.216L556.726 52.528H554.242L554.638 49.576H556.726ZM571.719 67C570.303 67 569.139 66.556 568.227 65.668C567.339 64.756 566.895 63.544 566.895 62.032C566.895 60.496 567.591 59.176 568.983 58.072C570.375 56.944 572.067 56.38 574.059 56.38H576.507V55.768C576.507 54.592 576.267 53.788 575.787 53.356C575.307 52.924 574.407 52.708 573.087 52.708C572.535 52.708 571.875 52.828 571.107 53.068C570.363 53.284 569.523 53.632 568.587 54.112L567.543 51.268C568.575 50.548 569.823 49.9 571.287 49.324C572.775 48.748 573.999 48.46 574.959 48.46C578.727 48.46 580.611 50.284 580.611 53.932V60.988C580.611 62.332 581.031 63.832 581.871 65.488L578.055 67.108C577.455 65.956 577.011 64.924 576.723 64.012C575.403 66.004 573.735 67 571.719 67ZM573.231 63.328C574.191 63.328 575.283 62.836 576.507 61.852V59.44C575.235 59.152 574.203 59.008 573.411 59.008C571.899 59.008 571.143 59.68 571.143 61.024C571.143 61.72 571.335 62.284 571.719 62.716C572.103 63.124 572.607 63.328 573.231 63.328ZM594.534 48.82C596.142 48.82 597.45 49.516 598.458 50.908C599.466 52.3 599.97 54.088 599.97 56.272C599.97 59.416 599.142 61.996 597.486 64.012C595.854 66.004 593.73 67 591.114 67C589.914 67 587.898 66.808 585.066 66.424L585.426 58.252L584.994 40.036L589.926 39.136L589.458 48.424V52.312C589.722 51.928 590.046 51.52 590.43 51.088C590.814 50.656 591.414 50.176 592.23 49.648C593.046 49.096 593.814 48.82 594.534 48.82ZM593.13 53.5C592.026 53.5 590.802 53.836 589.458 54.508V57.64L589.674 62.932C590.682 63.052 591.63 63.112 592.518 63.112C594.822 63.112 595.974 61.516 595.974 58.324C595.974 55.108 595.026 53.5 593.13 53.5ZM606.559 67C605.143 67 603.979 66.556 603.067 65.668C602.179 64.756 601.735 63.544 601.735 62.032C601.735 60.496 602.431 59.176 603.823 58.072C605.215 56.944 606.907 56.38 608.899 56.38H611.347V55.768C611.347 54.592 611.107 53.788 610.627 53.356C610.147 52.924 609.247 52.708 607.927 52.708C607.375 52.708 606.715 52.828 605.947 53.068C605.203 53.284 604.363 53.632 603.427 54.112L602.383 51.268C603.415 50.548 604.663 49.9 606.127 49.324C607.615 48.748 608.839 48.46 609.799 48.46C613.567 48.46 615.451 50.284 615.451 53.932V60.988C615.451 62.332 615.871 63.832 616.711 65.488L612.895 67.108C612.295 65.956 611.851 64.924 611.563 64.012C610.243 66.004 608.575 67 606.559 67ZM608.071 63.328C609.031 63.328 610.123 62.836 611.347 61.852V59.44C610.075 59.152 609.043 59.008 608.251 59.008C606.739 59.008 605.983 59.68 605.983 61.024C605.983 61.72 606.175 62.284 606.559 62.716C606.943 63.124 607.447 63.328 608.071 63.328ZM625.27 63.652C626.518 63.652 627.142 63.1 627.142 61.996C627.142 61.612 626.866 61.252 626.314 60.916C625.786 60.58 625.126 60.244 624.334 59.908C623.566 59.572 622.786 59.2 621.994 58.792C621.226 58.36 620.566 57.772 620.014 57.028C619.486 56.284 619.222 55.432 619.222 54.472C619.222 52.864 619.93 51.46 621.346 50.26C622.762 49.06 624.394 48.46 626.242 48.46C627.106 48.46 627.946 48.568 628.762 48.784C629.602 48.976 630.406 49.288 631.174 49.72L628.762 54.112C628.594 53.968 628.378 53.788 628.114 53.572C627.85 53.356 627.346 53.08 626.602 52.744C625.882 52.384 625.234 52.204 624.658 52.204C624.106 52.204 623.674 52.336 623.362 52.6C623.074 52.84 622.93 53.188 622.93 53.644C622.93 54.076 623.338 54.52 624.154 54.976C624.994 55.408 625.906 55.816 626.89 56.2C627.874 56.56 628.774 57.172 629.59 58.036C630.43 58.876 630.85 59.884 630.85 61.06C630.85 62.74 630.154 64.216 628.762 65.488C627.394 66.76 625.81 67.396 624.01 67.396C622.858 67.396 621.778 67.144 620.77 66.64C619.786 66.136 619.078 65.632 618.646 65.128L617.998 64.372L620.842 61.06C620.986 61.252 621.19 61.492 621.454 61.78C621.718 62.068 622.234 62.452 623.002 62.932C623.794 63.412 624.55 63.652 625.27 63.652ZM640.482 63.328C641.178 63.328 641.91 63.148 642.678 62.788C643.446 62.428 644.046 62.068 644.478 61.708L645.126 61.168L646.782 63.184C646.542 63.592 646.17 64.06 645.666 64.588C645.162 65.116 644.646 65.572 644.118 65.956C643.614 66.316 642.93 66.652 642.066 66.964C641.226 67.252 640.35 67.396 639.438 67.396C637.494 67.396 635.91 66.664 634.686 65.2C633.462 63.712 632.85 61.804 632.85 59.476C632.85 56.548 633.702 53.98 635.406 51.772C637.11 49.564 639.102 48.46 641.382 48.46C643.134 48.46 644.49 48.952 645.45 49.936C646.434 50.92 646.926 52.3 646.926 54.076C646.926 55.132 646.746 56.332 646.386 57.676L645.666 58.432L636.666 59.26C637.074 61.972 638.346 63.328 640.482 63.328ZM640.482 52.168C639.426 52.168 638.538 52.6 637.818 53.464C637.098 54.304 636.678 55.384 636.558 56.704L642.678 55.948C642.75 55.396 642.786 54.94 642.786 54.58C642.786 52.972 642.018 52.168 640.482 52.168Z" fill="white"/>
<defs>
<clipPath id="clip0_182:165">
<rect width="113" height="114" fill="white"/>
</clipPath>
</defs>
</svg>
