<svg width="395" height="114" viewBox="0 0 395 114" fill="none" xmlns="http://www.w3.org/2000/svg">
<g clip-path="url(#clip0_181:134)">
<path d="M0.0490112 113.667V59.4258H3.90287C6.74433 71.0829 14.1698 78.9453 23.9098 83.3309C25.4152 84.0126 26.2846 83.2021 27.1615 81.816L35.8026 113.667H0.0490112Z" fill="white" stroke="white" stroke-width="0.25" stroke-miterlimit="10"/>
<path d="M76.0196 113.667L64.2322 76.3094C72.4066 56.0249 66.893 36.6985 60.6192 23.2879C56.9724 19.3757 53.604 17.1487 50.9206 19.0765C47.8458 11.9867 43.3559 5.98394 35.8025 2.44665L38.9413 0.0493164H112.955V113.667H76.0196Z" fill="white" stroke="white" stroke-width="0.25" stroke-miterlimit="10"/>
<path d="M50.9205 19.0916C39.6299 25.7003 33.7889 30.4533 24.9107 32.6726C27.2177 35.6494 30.9549 38.0657 33.9959 37.2703C37.8761 36.1342 40.5369 26.9387 50.9205 19.0916Z" fill="white" stroke="white" stroke-width="0.25" stroke-miterlimit="10"/>
<path d="M38.9416 0.0495605L35.8029 2.44689L10.9861 8.56708L6.82367 12.5891L10.606 26.5603H13.0787L24.9112 32.6729C21.7536 41.0049 26.7553 54.6655 33.9964 61.5734C29.4161 59.4601 15.5551 58.3808 3.88812 59.4261H0.0493164V0.0495605H38.9416Z" fill="white" stroke="white" stroke-width="0.25" stroke-miterlimit="10"/>
<path d="M33.996 37.2704C36.8563 56.0097 49.4566 67.7312 55.482 72.1131C45.5952 61.2058 37.9138 42.4551 37.9138 33.6536L33.996 37.2704Z" fill="white" stroke="white" stroke-width="0.25" stroke-miterlimit="10"/>
<path d="M13.0782 26.5524L27.1501 20.6216L16.3676 28.2567L13.0782 26.5524Z" fill="white" stroke="white" stroke-width="0.25" stroke-miterlimit="10"/>
<path d="M35.8025 2.44653C34.982 7.07077 29.284 16.4821 27.1464 20.6253C37.131 17.5084 45.6253 15.5353 46.9651 21.4585L50.9168 19.0915C47.5485 8.60081 41.9935 4.56739 35.8025 2.44653Z" fill="white" stroke="white" stroke-width="0.25" stroke-miterlimit="10"/>
<path d="M33.9957 61.573C28.6704 64.1294 35.7872 70.9502 37.9136 63.4893L33.9957 61.573Z" fill="white" stroke="white" stroke-width="0.25" stroke-miterlimit="10"/>
<path d="M46.6752 66.8752C41.3536 69.4316 48.4667 76.2525 50.5968 68.7916L46.6752 66.8752Z" fill="white"/>
<path d="M46.6752 66.8752C41.3536 69.4316 48.4667 76.2525 50.5968 68.7916" stroke="white" stroke-width="0.25" stroke-miterlimit="10"/>
<path d="M76.0197 113.667C65.9974 97.7603 51.2067 88.6444 32.0579 79.7709C47.2588 82.3083 59.6671 81.6228 64.2323 76.3093L76.0197 113.667Z" fill="white" stroke="white" stroke-width="0.25" stroke-miterlimit="10"/>
<path d="M53.3066 69.5265C38.4708 64.5311 29.5023 60.172 30.0668 56.8582C35.968 60.1682 42.2719 64.1751 44.7446 61.5733L53.3066 69.5265Z" fill="white" stroke="white" stroke-width="0.25" stroke-miterlimit="10"/>
</g>
<path d="M147.88 67L148.312 58.252L147.88 42.16H161.38L160.984 46.012H152.884L152.668 52.384H159.868L159.472 56.2H152.524L152.488 57.64L152.74 63.184H161.452L161.056 67H147.88ZM163.799 64.588C163.799 63.82 164.075 63.148 164.627 62.572C165.203 61.972 165.887 61.672 166.679 61.672C168.239 61.672 169.019 62.464 169.019 64.048C169.019 64.96 168.731 65.716 168.155 66.316C167.603 66.916 166.943 67.216 166.175 67.216C165.431 67.216 164.843 66.976 164.411 66.496C164.003 65.992 163.799 65.356 163.799 64.588ZM173.054 67.36C172.07 67.36 171.086 67.252 170.102 67.036L171.254 62.716C172.046 62.98 172.814 63.112 173.558 63.112C175.022 63.112 175.754 61.9 175.754 59.476L175.25 42.88L180.362 41.98L179.858 58.216C179.858 60.832 179.222 63.016 177.95 64.768C176.678 66.496 175.046 67.36 173.054 67.36ZM196.34 41.98L195.944 53.716L205.124 42.052L208.796 44.5L200.516 54.112L209.3 64.516L204.692 67.396L195.908 54.976L195.836 57.64L196.268 67H191.228L191.66 58.252L191.228 42.88L196.34 41.98ZM219.852 42.16C222.156 42.16 223.98 42.688 225.324 43.744C226.668 44.776 227.34 46.168 227.34 47.92C227.34 50.728 226.188 52.684 223.884 53.788C227.004 54.868 228.564 56.86 228.564 59.764C228.564 61.948 227.628 63.772 225.756 65.236C223.884 66.676 221.532 67.396 218.7 67.396C217.212 67.396 214.992 67.264 212.04 67L212.472 58.252L212.04 42.16H219.852ZM219.384 56.308H216.468L216.432 57.64L216.684 63.508C218.076 63.628 219.144 63.688 219.888 63.688C221.16 63.688 222.144 63.376 222.84 62.752C223.56 62.104 223.92 61.168 223.92 59.944C223.92 58.72 223.56 57.808 222.84 57.208C222.12 56.608 220.968 56.308 219.384 56.308ZM218.556 45.796H216.792L216.576 52.816H218.916C220.14 52.816 221.076 52.492 221.724 51.844C222.372 51.172 222.696 50.224 222.696 49C222.696 46.864 221.316 45.796 218.556 45.796ZM247.467 67.18L245.703 60.16H237.099L235.191 67L230.583 66.64L233.751 57.892L238.575 42.412L245.019 41.944L249.663 57.352L252.651 66.388L247.467 67.18ZM241.779 46.624H241.311L238.215 56.344H244.623L241.779 46.624ZM268.99 67.396C267.286 67.396 264.826 67.264 261.61 67L262.042 58.252L261.61 42.16H271.222C274.462 42.16 276.994 43.132 278.818 45.076C280.642 47.02 281.554 49.72 281.554 53.176C281.554 57.544 280.426 61.012 278.17 63.58C275.914 66.124 272.854 67.396 268.99 67.396ZM269.926 46.048C268.342 46.048 267.226 46.06 266.578 46.084L266.218 57.64L266.47 63.472C268.486 63.616 269.842 63.688 270.538 63.688C272.434 63.688 273.922 62.92 275.002 61.384C276.106 59.848 276.658 57.616 276.658 54.688C276.658 51.76 276.118 49.588 275.038 48.172C273.982 46.756 272.278 46.048 269.926 46.048ZM288.325 67C286.909 67 285.745 66.556 284.833 65.668C283.945 64.756 283.501 63.544 283.501 62.032C283.501 60.496 284.197 59.176 285.589 58.072C286.981 56.944 288.673 56.38 290.665 56.38H293.113V55.768C293.113 54.592 292.873 53.788 292.393 53.356C291.913 52.924 291.013 52.708 289.693 52.708C289.141 52.708 288.481 52.828 287.713 53.068C286.969 53.284 286.129 53.632 285.193 54.112L284.149 51.268C285.181 50.548 286.429 49.9 287.893 49.324C289.381 48.748 290.605 48.46 291.565 48.46C295.333 48.46 297.217 50.284 297.217 53.932V60.988C297.217 62.332 297.637 63.832 298.477 65.488L294.661 67.108C294.061 65.956 293.617 64.924 293.329 64.012C292.009 66.004 290.341 67 288.325 67ZM289.837 63.328C290.797 63.328 291.889 62.836 293.113 61.852V59.44C291.841 59.152 290.809 59.008 290.017 59.008C288.505 59.008 287.749 59.68 287.749 61.024C287.749 61.72 287.941 62.284 288.325 62.716C288.709 63.124 289.213 63.328 289.837 63.328ZM303.004 49.576V45.652L307.864 44.716L307.396 49.576H311.752L311.356 52.528H307.252L307.072 60.052C307.072 61.18 307.18 61.936 307.396 62.32C307.612 62.68 308.008 62.86 308.584 62.86C309.16 62.86 309.928 62.728 310.888 62.464L311.104 65.02C309.52 66.34 308.128 67 306.928 67C305.728 67 304.744 66.568 303.976 65.704C303.208 64.816 302.824 63.664 302.824 62.248L303.04 58.216L303.004 52.528H300.52L300.916 49.576H303.004ZM317.997 67C316.581 67 315.417 66.556 314.505 65.668C313.617 64.756 313.173 63.544 313.173 62.032C313.173 60.496 313.869 59.176 315.261 58.072C316.653 56.944 318.345 56.38 320.337 56.38H322.785V55.768C322.785 54.592 322.545 53.788 322.065 53.356C321.585 52.924 320.685 52.708 319.365 52.708C318.813 52.708 318.153 52.828 317.385 53.068C316.641 53.284 315.801 53.632 314.865 54.112L313.821 51.268C314.853 50.548 316.101 49.9 317.565 49.324C319.053 48.748 320.277 48.46 321.237 48.46C325.005 48.46 326.889 50.284 326.889 53.932V60.988C326.889 62.332 327.309 63.832 328.149 65.488L324.333 67.108C323.733 65.956 323.289 64.924 323.001 64.012C321.681 66.004 320.013 67 317.997 67ZM319.509 63.328C320.469 63.328 321.561 62.836 322.785 61.852V59.44C321.513 59.152 320.481 59.008 319.689 59.008C318.177 59.008 317.421 59.68 317.421 61.024C317.421 61.72 317.613 62.284 317.997 62.716C318.381 63.124 318.885 63.328 319.509 63.328ZM340.812 48.82C342.42 48.82 343.728 49.516 344.736 50.908C345.744 52.3 346.248 54.088 346.248 56.272C346.248 59.416 345.42 61.996 343.764 64.012C342.132 66.004 340.008 67 337.392 67C336.192 67 334.176 66.808 331.344 66.424L331.704 58.252L331.272 40.036L336.204 39.136L335.736 48.424V52.312C336 51.928 336.324 51.52 336.708 51.088C337.092 50.656 337.692 50.176 338.508 49.648C339.324 49.096 340.092 48.82 340.812 48.82ZM339.408 53.5C338.304 53.5 337.08 53.836 335.736 54.508V57.64L335.952 62.932C336.96 63.052 337.908 63.112 338.796 63.112C341.1 63.112 342.252 61.516 342.252 58.324C342.252 55.108 341.304 53.5 339.408 53.5ZM352.836 67C351.42 67 350.256 66.556 349.344 65.668C348.456 64.756 348.012 63.544 348.012 62.032C348.012 60.496 348.708 59.176 350.1 58.072C351.492 56.944 353.184 56.38 355.176 56.38H357.624V55.768C357.624 54.592 357.384 53.788 356.904 53.356C356.424 52.924 355.524 52.708 354.204 52.708C353.652 52.708 352.992 52.828 352.224 53.068C351.48 53.284 350.64 53.632 349.704 54.112L348.66 51.268C349.692 50.548 350.94 49.9 352.404 49.324C353.892 48.748 355.116 48.46 356.076 48.46C359.844 48.46 361.728 50.284 361.728 53.932V60.988C361.728 62.332 362.148 63.832 362.988 65.488L359.172 67.108C358.572 65.956 358.128 64.924 357.84 64.012C356.52 66.004 354.852 67 352.836 67ZM354.348 63.328C355.308 63.328 356.4 62.836 357.624 61.852V59.44C356.352 59.152 355.32 59.008 354.528 59.008C353.016 59.008 352.26 59.68 352.26 61.024C352.26 61.72 352.452 62.284 352.836 62.716C353.22 63.124 353.724 63.328 354.348 63.328ZM371.547 63.652C372.795 63.652 373.419 63.1 373.419 61.996C373.419 61.612 373.143 61.252 372.591 60.916C372.063 60.58 371.403 60.244 370.611 59.908C369.843 59.572 369.063 59.2 368.271 58.792C367.503 58.36 366.843 57.772 366.291 57.028C365.763 56.284 365.499 55.432 365.499 54.472C365.499 52.864 366.207 51.46 367.623 50.26C369.039 49.06 370.671 48.46 372.519 48.46C373.383 48.46 374.223 48.568 375.039 48.784C375.879 48.976 376.683 49.288 377.451 49.72L375.039 54.112C374.871 53.968 374.655 53.788 374.391 53.572C374.127 53.356 373.623 53.08 372.879 52.744C372.159 52.384 371.511 52.204 370.935 52.204C370.383 52.204 369.951 52.336 369.639 52.6C369.351 52.84 369.207 53.188 369.207 53.644C369.207 54.076 369.615 54.52 370.431 54.976C371.271 55.408 372.183 55.816 373.167 56.2C374.151 56.56 375.051 57.172 375.867 58.036C376.707 58.876 377.127 59.884 377.127 61.06C377.127 62.74 376.431 64.216 375.039 65.488C373.671 66.76 372.087 67.396 370.287 67.396C369.135 67.396 368.055 67.144 367.047 66.64C366.063 66.136 365.355 65.632 364.923 65.128L364.275 64.372L367.119 61.06C367.263 61.252 367.467 61.492 367.731 61.78C367.995 62.068 368.511 62.452 369.279 62.932C370.071 63.412 370.827 63.652 371.547 63.652ZM386.759 63.328C387.455 63.328 388.187 63.148 388.955 62.788C389.723 62.428 390.323 62.068 390.755 61.708L391.403 61.168L393.059 63.184C392.819 63.592 392.447 64.06 391.943 64.588C391.439 65.116 390.923 65.572 390.395 65.956C389.891 66.316 389.207 66.652 388.343 66.964C387.503 67.252 386.627 67.396 385.715 67.396C383.771 67.396 382.187 66.664 380.963 65.2C379.739 63.712 379.127 61.804 379.127 59.476C379.127 56.548 379.979 53.98 381.683 51.772C383.387 49.564 385.379 48.46 387.659 48.46C389.411 48.46 390.767 48.952 391.727 49.936C392.711 50.92 393.203 52.3 393.203 54.076C393.203 55.132 393.023 56.332 392.663 57.676L391.943 58.432L382.943 59.26C383.351 61.972 384.623 63.328 386.759 63.328ZM386.759 52.168C385.703 52.168 384.815 52.6 384.095 53.464C383.375 54.304 382.955 55.384 382.835 56.704L388.955 55.948C389.027 55.396 389.063 54.94 389.063 54.58C389.063 52.972 388.295 52.168 386.759 52.168Z" fill="white"/>
<defs>
<clipPath id="clip0_181:134">
<rect width="113" height="114" fill="white"/>
</clipPath>
</defs>
</svg>
