<svg width="476" height="114" viewBox="0 0 476 114" fill="none" xmlns="http://www.w3.org/2000/svg">
<g clip-path="url(#clip0_0:1)">
<path d="M0.0490112 113.667V59.4258H3.90287C6.74433 71.0829 14.1698 78.9453 23.9098 83.3309C25.4152 84.0126 26.2846 83.2021 27.1615 81.816L35.8026 113.667H0.0490112Z" fill="white" stroke="white" stroke-width="0.25" stroke-miterlimit="10"/>
<path d="M76.0196 113.667L64.2322 76.3094C72.4066 56.0249 66.893 36.6985 60.6192 23.2879C56.9724 19.3757 53.604 17.1487 50.9206 19.0765C47.8458 11.9867 43.3559 5.98394 35.8025 2.44665L38.9413 0.0493164H112.955V113.667H76.0196Z" fill="white" stroke="white" stroke-width="0.25" stroke-miterlimit="10"/>
<path d="M50.9205 19.0916C39.6299 25.7003 33.7889 30.4533 24.9107 32.6726C27.2177 35.6494 30.9549 38.0657 33.9959 37.2703C37.8761 36.1342 40.5369 26.9387 50.9205 19.0916Z" fill="white" stroke="white" stroke-width="0.25" stroke-miterlimit="10"/>
<path d="M38.9416 0.0495605L35.8029 2.44689L10.9861 8.56708L6.82367 12.5891L10.606 26.5603H13.0787L24.9112 32.6729C21.7536 41.0049 26.7553 54.6655 33.9964 61.5734C29.4161 59.4601 15.5551 58.3808 3.88812 59.4261H0.0493164V0.0495605H38.9416Z" fill="white" stroke="white" stroke-width="0.25" stroke-miterlimit="10"/>
<path d="M33.996 37.2704C36.8563 56.0097 49.4566 67.7312 55.482 72.1131C45.5952 61.2058 37.9138 42.4551 37.9138 33.6536L33.996 37.2704Z" fill="white" stroke="white" stroke-width="0.25" stroke-miterlimit="10"/>
<path d="M13.0782 26.5524L27.1501 20.6216L16.3676 28.2567L13.0782 26.5524Z" fill="white" stroke="white" stroke-width="0.25" stroke-miterlimit="10"/>
<path d="M35.8025 2.44653C34.982 7.07077 29.284 16.4821 27.1464 20.6253C37.131 17.5084 45.6253 15.5353 46.9651 21.4585L50.9168 19.0915C47.5485 8.60081 41.9935 4.56739 35.8025 2.44653Z" fill="white" stroke="white" stroke-width="0.25" stroke-miterlimit="10"/>
<path d="M33.9957 61.573C28.6704 64.1294 35.7872 70.9502 37.9136 63.4893L33.9957 61.573Z" fill="white" stroke="white" stroke-width="0.25" stroke-miterlimit="10"/>
<path d="M46.6752 66.8752C41.3536 69.4316 48.4667 76.2525 50.5968 68.7916Z" fill="white"/>
<path d="M46.6752 66.8752C41.3536 69.4316 48.4667 76.2525 50.5968 68.7916" stroke="white" stroke-width="0.25" stroke-miterlimit="10"/>
<path d="M76.0197 113.667C65.9974 97.7603 51.2067 88.6444 32.0579 79.7709C47.2588 82.3083 59.6671 81.6228 64.2323 76.3093L76.0197 113.667Z" fill="white" stroke="white" stroke-width="0.25" stroke-miterlimit="10"/>
<path d="M53.3066 69.5265C38.4708 64.5311 29.5023 60.172 30.0668 56.8582C35.968 60.1682 42.2719 64.1751 44.7446 61.5733L53.3066 69.5265Z" fill="white" stroke="white" stroke-width="0.25" stroke-miterlimit="10"/>
</g>
<path d="M148.84 71L149.416 59.336L148.84 37.88H166.84L166.312 43.016H155.512L155.224 51.512H164.824L164.296 56.6H155.032L154.984 58.52L155.32 65.912H166.936L166.408 71H148.84ZM170.065 67.784C170.065 66.76 170.433 65.864 171.169 65.096C171.937 64.296 172.849 63.896 173.905 63.896C175.985 63.896 177.025 64.952 177.025 67.064C177.025 68.28 176.641 69.288 175.873 70.088C175.137 70.888 174.257 71.288 173.233 71.288C172.241 71.288 171.457 70.968 170.881 70.328C170.337 69.656 170.065 68.808 170.065 67.784ZM182.405 71.48C181.093 71.48 179.781 71.336 178.469 71.048L180.005 65.288C181.061 65.64 182.085 65.816 183.077 65.816C185.029 65.816 186.005 64.2 186.005 60.968L185.333 38.84L192.149 37.64L191.477 59.288C191.477 62.776 190.629 65.688 188.933 68.024C187.237 70.328 185.061 71.48 182.405 71.48ZM213.453 37.64L212.925 53.288L225.165 37.736L230.061 41L219.021 53.816L230.733 67.688L224.589 71.528L212.877 54.968L212.781 58.52L213.357 71H206.637L207.213 59.336L206.637 38.84L213.453 37.64ZM244.803 37.88C247.875 37.88 250.307 38.584 252.099 39.992C253.891 41.368 254.787 43.224 254.787 45.56C254.787 49.304 253.251 51.912 250.179 53.384C254.339 54.824 256.419 57.48 256.419 61.352C256.419 64.264 255.171 66.696 252.675 68.648C250.179 70.568 247.043 71.528 243.267 71.528C241.283 71.528 238.323 71.352 234.387 71L234.963 59.336L234.387 37.88H244.803ZM244.179 56.744H240.291L240.243 58.52L240.579 66.344C242.435 66.504 243.859 66.584 244.851 66.584C246.547 66.584 247.859 66.168 248.787 65.336C249.747 64.472 250.227 63.224 250.227 61.592C250.227 59.96 249.747 58.744 248.787 57.944C247.827 57.144 246.291 56.744 244.179 56.744ZM243.075 42.728H240.723L240.435 52.088H243.555C245.187 52.088 246.435 51.656 247.299 50.792C248.163 49.896 248.595 48.632 248.595 47C248.595 44.152 246.755 42.728 243.075 42.728ZM281.623 71.24L279.271 61.88H267.799L265.255 71L259.111 70.52L263.335 58.856L269.767 38.216L278.359 37.592L284.551 58.136L288.535 70.184L281.623 71.24ZM274.039 43.832H273.415L269.287 56.792H277.831L274.039 43.832ZM310.321 71.528C308.049 71.528 304.769 71.352 300.481 71L301.057 59.336L300.481 37.88H313.297C317.617 37.88 320.993 39.176 323.425 41.768C325.857 44.36 327.073 47.96 327.073 52.568C327.073 58.392 325.569 63.016 322.561 66.44C319.553 69.832 315.473 71.528 310.321 71.528ZM311.569 43.064C309.457 43.064 307.969 43.08 307.105 43.112L306.625 58.52L306.961 66.296C309.649 66.488 311.457 66.584 312.385 66.584C314.913 66.584 316.897 65.56 318.337 63.512C319.809 61.464 320.545 58.488 320.545 54.584C320.545 50.68 319.825 47.784 318.385 45.896C316.977 44.008 314.705 43.064 311.569 43.064ZM336.1 71C334.212 71 332.66 70.408 331.444 69.224C330.26 68.008 329.668 66.392 329.668 64.376C329.668 62.328 330.596 60.568 332.452 59.096C334.308 57.592 336.564 56.84 339.22 56.84H342.484V56.024C342.484 54.456 342.164 53.384 341.524 52.808C340.884 52.232 339.684 51.944 337.924 51.944C337.188 51.944 336.308 52.104 335.284 52.424C334.292 52.712 333.172 53.176 331.924 53.816L330.532 50.024C331.908 49.064 333.572 48.2 335.524 47.432C337.508 46.664 339.14 46.28 340.42 46.28C345.444 46.28 347.956 48.712 347.956 53.576V62.984C347.956 64.776 348.516 66.776 349.636 68.984L344.548 71.144C343.748 69.608 343.156 68.232 342.772 67.016C341.012 69.672 338.788 71 336.1 71ZM338.116 66.104C339.396 66.104 340.852 65.448 342.484 64.136V60.92C340.788 60.536 339.412 60.344 338.356 60.344C336.34 60.344 335.332 61.24 335.332 63.032C335.332 63.96 335.588 64.712 336.1 65.288C336.612 65.832 337.284 66.104 338.116 66.104ZM355.672 47.768V42.536L362.152 41.288L361.528 47.768H367.336L366.808 51.704H361.336L361.096 61.736C361.096 63.24 361.24 64.248 361.528 64.76C361.816 65.24 362.344 65.48 363.112 65.48C363.88 65.48 364.904 65.304 366.184 64.952L366.472 68.36C364.36 70.12 362.504 71 360.904 71C359.304 71 357.992 70.424 356.968 69.272C355.944 68.088 355.432 66.552 355.432 64.664L355.72 59.288L355.672 51.704H352.36L352.888 47.768H355.672ZM375.662 71C373.774 71 372.222 70.408 371.006 69.224C369.822 68.008 369.23 66.392 369.23 64.376C369.23 62.328 370.158 60.568 372.014 59.096C373.87 57.592 376.126 56.84 378.782 56.84H382.046V56.024C382.046 54.456 381.726 53.384 381.086 52.808C380.446 52.232 379.246 51.944 377.486 51.944C376.75 51.944 375.87 52.104 374.846 52.424C373.854 52.712 372.734 53.176 371.486 53.816L370.094 50.024C371.47 49.064 373.134 48.2 375.086 47.432C377.07 46.664 378.702 46.28 379.982 46.28C385.006 46.28 387.518 48.712 387.518 53.576V62.984C387.518 64.776 388.078 66.776 389.198 68.984L384.11 71.144C383.31 69.608 382.718 68.232 382.334 67.016C380.574 69.672 378.35 71 375.662 71ZM377.678 66.104C378.958 66.104 380.414 65.448 382.046 64.136V60.92C380.35 60.536 378.974 60.344 377.918 60.344C375.902 60.344 374.894 61.24 374.894 63.032C374.894 63.96 375.15 64.712 375.662 65.288C376.174 65.832 376.846 66.104 377.678 66.104ZM406.082 46.76C408.226 46.76 409.97 47.688 411.314 49.544C412.658 51.4 413.33 53.784 413.33 56.696C413.33 60.888 412.226 64.328 410.018 67.016C407.842 69.672 405.01 71 401.522 71C399.922 71 397.234 70.744 393.458 70.232L393.938 59.336L393.362 35.048L399.938 33.848L399.314 46.232V51.416C399.666 50.904 400.098 50.36 400.61 49.784C401.122 49.208 401.922 48.568 403.01 47.864C404.098 47.128 405.122 46.76 406.082 46.76ZM404.21 53C402.738 53 401.106 53.448 399.314 54.344V58.52L399.602 65.576C400.946 65.736 402.21 65.816 403.394 65.816C406.466 65.816 408.002 63.688 408.002 59.432C408.002 55.144 406.738 53 404.21 53ZM422.115 71C420.227 71 418.675 70.408 417.459 69.224C416.275 68.008 415.683 66.392 415.683 64.376C415.683 62.328 416.611 60.568 418.467 59.096C420.323 57.592 422.579 56.84 425.235 56.84H428.499V56.024C428.499 54.456 428.179 53.384 427.539 52.808C426.899 52.232 425.699 51.944 423.939 51.944C423.203 51.944 422.323 52.104 421.299 52.424C420.307 52.712 419.187 53.176 417.939 53.816L416.547 50.024C417.923 49.064 419.587 48.2 421.539 47.432C423.523 46.664 425.155 46.28 426.435 46.28C431.459 46.28 433.971 48.712 433.971 53.576V62.984C433.971 64.776 434.531 66.776 435.651 68.984L430.563 71.144C429.763 69.608 429.171 68.232 428.787 67.016C427.027 69.672 424.803 71 422.115 71ZM424.131 66.104C425.411 66.104 426.867 65.448 428.499 64.136V60.92C426.803 60.536 425.427 60.344 424.371 60.344C422.355 60.344 421.347 61.24 421.347 63.032C421.347 63.96 421.603 64.712 422.115 65.288C422.627 65.832 423.299 66.104 424.131 66.104ZM447.063 66.536C448.727 66.536 449.559 65.8 449.559 64.328C449.559 63.816 449.191 63.336 448.455 62.888C447.751 62.44 446.871 61.992 445.815 61.544C444.791 61.096 443.751 60.6 442.695 60.056C441.671 59.48 440.791 58.696 440.055 57.704C439.351 56.712 438.999 55.576 438.999 54.296C438.999 52.152 439.943 50.28 441.831 48.68C443.719 47.08 445.895 46.28 448.359 46.28C449.511 46.28 450.631 46.424 451.719 46.712C452.839 46.968 453.911 47.384 454.935 47.96L451.719 53.816C451.495 53.624 451.207 53.384 450.855 53.096C450.503 52.808 449.831 52.44 448.839 51.992C447.879 51.512 447.015 51.272 446.247 51.272C445.511 51.272 444.935 51.448 444.519 51.8C444.135 52.12 443.943 52.584 443.943 53.192C443.943 53.768 444.487 54.36 445.575 54.968C446.695 55.544 447.911 56.088 449.223 56.6C450.535 57.08 451.735 57.896 452.823 59.048C453.943 60.168 454.503 61.512 454.503 63.08C454.503 65.32 453.575 67.288 451.719 68.984C449.895 70.68 447.783 71.528 445.383 71.528C443.847 71.528 442.407 71.192 441.063 70.52C439.751 69.848 438.807 69.176 438.231 68.504L437.367 67.496L441.159 63.08C441.351 63.336 441.623 63.656 441.975 64.04C442.327 64.424 443.015 64.936 444.039 65.576C445.095 66.216 446.103 66.536 447.063 66.536ZM467.346 66.104C468.274 66.104 469.25 65.864 470.274 65.384C471.298 64.904 472.098 64.424 472.674 63.944L473.538 63.224L475.746 65.912C475.426 66.456 474.93 67.08 474.258 67.784C473.586 68.488 472.898 69.096 472.194 69.608C471.522 70.088 470.61 70.536 469.458 70.952C468.338 71.336 467.17 71.528 465.954 71.528C463.362 71.528 461.25 70.552 459.618 68.6C457.986 66.616 457.17 64.072 457.17 60.968C457.17 57.064 458.306 53.64 460.578 50.696C462.85 47.752 465.506 46.28 468.546 46.28C470.882 46.28 472.69 46.936 473.97 48.248C475.282 49.56 475.938 51.4 475.938 53.768C475.938 55.176 475.698 56.776 475.218 58.568L474.258 59.576L462.258 60.68C462.802 64.296 464.498 66.104 467.346 66.104ZM467.346 51.224C465.938 51.224 464.754 51.8 463.794 52.952C462.834 54.072 462.274 55.512 462.114 57.272L470.274 56.264C470.37 55.528 470.418 54.92 470.418 54.44C470.418 52.296 469.394 51.224 467.346 51.224Z" fill="white"/>
<defs>
<clipPath id="clip0_0:1">
<rect width="113" height="114" fill="white"/>
</clipPath>
</defs>
</svg>
