<svg xmlns="http://www.w3.org/2000/svg" viewBox="0 0 300 100"><defs><style>.cls-1{fill:#2b3990;}.cls-2,.cls-5{fill:#fff;}.cls-3{fill:#ed2224;}.cls-4{fill:#010101;}.cls-5{font-size:53.96px;font-family:Algerian;}</style></defs><g id="Layer_2" data-name="Layer 2"><rect class="cls-1" width="300" height="100"/></g><g id="Layer_1" data-name="Layer 1"><path class="cls-2" d="M16.93,40.4l.54,16.77"/><path class="cls-3" d="M69.69,48.78C69,90.93,6.28,90.92,5.57,48.78,6.29,6.64,69,6.64,69.69,48.78Z"/><path class="cls-2" d="M64.55,48.78c-.6,35.39-53.24,35.38-53.84,0C11.31,13.4,64,13.4,64.55,48.78Z"/><path class="cls-4" d="M39.61,39.18A20.36,20.36,0,0,0,30,36.74a20.45,20.45,0,0,0-9.4,2.44A26.17,26.17,0,0,0,21.45,56a17.35,17.35,0,0,0,8.73,2.71A17.33,17.33,0,0,0,39.61,56a30.85,30.85,0,0,0,1.13-7.84A31.4,31.4,0,0,0,39.61,39.18Z"/><path class="cls-4" d="M45.34,43.51A13.79,13.79,0,0,0,55,39.18a7.41,7.41,0,0,1,0,2A25.28,25.28,0,0,0,55,56a15.83,15.83,0,0,0-5.1-2.43A15.43,15.43,0,0,0,45.88,53C47.27,49.82,46.77,46.66,45.34,43.51Z"/><polygon class="cls-3" points="53.54 23.76 13.69 65.67 17.85 70.29 57.79 27.95 53.54 23.76"/><text class="cls-5" transform="translate(72.99 70.29) scale(0.54 1)">No Video Found</text></g></svg>